<svg xmlns="http://www.w3.org/2000/svg" width="24" height="12" viewBox="0 0 24 12" fill="none">
<path d="M18.2027 6.86835C19.5537 6.86835 20.6475 7.96286 20.6475 9.31383C20.6475 10.6648 19.5529 11.7593 18.2027 11.7593C16.8533 11.7593 15.758 10.6648 15.758 9.31383C15.758 7.96286 16.8533 6.86835 18.2027 6.86835ZM18.2027 10.0527C18.6088 10.0527 18.9416 9.72141 18.9416 9.31459C18.9416 8.90778 18.6088 8.57652 18.2027 8.57652C17.7974 8.57652 17.4654 8.90778 17.4654 9.31459C17.4654 9.72141 17.7967 10.0527 18.2027 10.0527Z" fill="#E31E24"/>
<path d="M0.403822 7.3101L0.80377 4.05708C0.882385 3.43274 1.42812 2.97478 2.05781 3.00913L2.93403 3.05798L5.65429 0.607148C5.91685 0.371301 6.25497 0.241547 6.6076 0.241547L12.1344 0.240784C13.3747 0.240784 14.5776 0.664393 15.5446 1.44139L18.6282 3.91893L22.775 4.95544C23.3077 5.08825 23.6817 5.56757 23.6817 6.11636V7.31162C23.8573 7.31086 24 7.45283 24 7.62838V9.20909C24 9.43425 23.8176 9.61667 23.5924 9.61667H21.2515C21.2614 9.51515 21.282 9.41822 21.282 9.31442C21.282 7.61464 19.9051 6.23924 18.2061 6.23924C16.5071 6.23924 15.1309 7.61464 15.1309 9.31442C15.1309 9.41898 15.1523 9.51592 15.1622 9.61667H8.67985C8.68901 9.51515 8.70961 9.41822 8.70961 9.31442C8.70961 7.61464 7.3327 6.23924 5.63444 6.23924C3.93466 6.23924 2.56003 7.61464 2.56003 9.31442C2.56003 9.41898 2.57988 9.51592 2.59056 9.61667H0.406876C0.181713 9.61667 5.91278e-05 9.43425 5.91278e-05 9.20909V7.71844C-0.00375748 7.49404 0.178659 7.3101 0.403822 7.3101ZM8.60658 3.3129L16.317 3.70293L14.8409 2.51606C14.0387 1.87111 13.0419 1.52001 12.0122 1.52001H8.60658V3.3129ZM7.32583 3.24803V1.52077H6.82436C6.65034 1.52077 6.48319 1.58488 6.3542 1.70166L4.78035 3.11827L7.32583 3.24803Z" fill="#E31E24"/>
<path d="M5.63243 6.86835C6.9834 6.86835 8.07715 7.96286 8.07715 9.31383C8.07715 10.6648 6.98263 11.7593 5.63243 11.7593C4.28222 11.7593 3.1877 10.6648 3.1877 9.31383C3.1877 7.96286 4.28222 6.86835 5.63243 6.86835ZM5.63243 10.0527C6.03924 10.0527 6.3705 9.72141 6.3705 9.31459C6.3705 8.90778 6.03924 8.57652 5.63243 8.57652C5.22714 8.57652 4.89435 8.90778 4.89435 9.31459C4.89435 9.72141 5.22637 10.0527 5.63243 10.0527Z" fill="#E31E24"/>
</svg>