<svg width="23" height="26" viewBox="0 0 23 26" fill="none" xmlns="http://www.w3.org/2000/svg">
<path d="M15.7561 8.48471L14.1702 6.90033L6.24053 14.8285C5.92823 15.1409 5.68052 15.5117 5.51154 15.9199C5.34256 16.328 5.25563 16.7654 5.2557 17.2071C5.25578 17.6489 5.34285 18.0863 5.51196 18.4943C5.68107 18.9024 5.92891 19.2732 6.24131 19.5855C6.55371 19.8978 6.92456 20.1455 7.3327 20.3145C7.74083 20.4835 8.17825 20.5704 8.61998 20.5703C9.06172 20.5702 9.49911 20.4832 9.90718 20.3141C10.3153 20.1449 10.686 19.8971 10.9983 19.5847L20.514 10.0706C21.5653 9.0191 22.1558 7.59299 22.1557 6.10603C22.1556 4.61907 21.5647 3.19307 20.5132 2.14174C19.4616 1.0904 18.0355 0.499854 16.5486 0.5C15.0616 0.500147 13.6356 1.09098 12.5843 2.14252L2.59365 12.1316L2.57178 12.1519C-0.48291 15.2066 -0.48291 20.1566 2.57178 23.2097C5.62646 26.2628 10.5765 26.2628 13.6311 23.2097L13.6515 23.1878L13.653 23.1894L20.4733 16.3706L18.8874 14.7863L12.0671 21.6035L12.0468 21.6238C9.87177 23.7988 6.33428 23.7988 4.15928 21.6238C3.64047 21.1038 3.22939 20.4866 2.94961 19.8074C2.66984 19.1283 2.52687 18.4006 2.5289 17.6661C2.53093 16.9316 2.67793 16.2047 2.96146 15.5271C3.24498 14.8495 3.65947 14.2346 4.18115 13.7175L4.17959 13.716L14.1718 3.7269C15.4827 2.4144 17.6171 2.4144 18.9296 3.7269C20.2421 5.0394 20.2405 7.17221 18.9296 8.48315L9.41396 17.9972C9.20101 18.1931 8.92061 18.2991 8.63133 18.2931C8.34206 18.2872 8.06627 18.1697 7.86157 17.9652C7.65688 17.7607 7.5391 17.485 7.53285 17.1958C7.5266 16.9065 7.63236 16.626 7.82803 16.4128L15.7577 8.48315L15.7561 8.48471Z" fill="white"/>
</svg>
