<svg width="25" height="30" viewBox="0 0 25 30" fill="none" xmlns="http://www.w3.org/2000/svg">
<path d="M24.2059 23.5294C24.2059 25.037 23.0299 26.5231 20.8558 27.6619C18.7054 28.7883 15.7 29.5 12.3529 29.5C9.00589 29.5 6.0005 28.7883 3.8501 27.6619C1.67601 26.5231 0.5 25.037 0.5 23.5294C0.5 22.0218 1.67601 20.5357 3.8501 19.3969C6.0005 18.2705 9.00589 17.5588 12.3529 17.5588C15.7 17.5588 18.7054 18.2705 20.8558 19.3969C23.0299 20.5357 24.2059 22.0218 24.2059 23.5294Z" fill="#FFCC00" stroke="white"/>
<path d="M24.2059 19.4118C24.2059 20.9193 23.0299 22.4054 20.8558 23.5442C18.7054 24.6706 15.7 25.3824 12.3529 25.3824C9.00589 25.3824 6.0005 24.6706 3.8501 23.5442C1.67601 22.4054 0.5 20.9193 0.5 19.4118C0.5 17.9042 1.67601 16.4181 3.8501 15.2793C6.0005 14.1529 9.00589 13.4412 12.3529 13.4412C15.7 13.4412 18.7054 14.1529 20.8558 15.2793C23.0299 16.4181 24.2059 17.9042 24.2059 19.4118Z" fill="#FFCC00" stroke="white"/>
<path d="M24.2059 15.2941C24.2059 16.8017 23.0299 18.2878 20.8558 19.4266C18.7054 20.553 15.7 21.2647 12.3529 21.2647C9.00589 21.2647 6.0005 20.553 3.8501 19.4266C1.67601 18.2878 0.5 16.8017 0.5 15.2941C0.5 13.7865 1.67601 12.3004 3.8501 11.1616C6.0005 10.0352 9.00589 9.32353 12.3529 9.32353C15.7 9.32353 18.7054 10.0352 20.8558 11.1616C23.0299 12.3004 24.2059 13.7865 24.2059 15.2941Z" fill="#FFCC00" stroke="white"/>
<path d="M24.2059 10.5882C24.2059 12.0958 23.0299 13.5819 20.8558 14.7207C18.7054 15.8471 15.7 16.5588 12.3529 16.5588C9.00589 16.5588 6.0005 15.8471 3.8501 14.7207C1.67601 13.5819 0.5 12.0958 0.5 10.5882C0.5 9.08067 1.67601 7.59456 3.8501 6.45575C6.0005 5.32935 9.00589 4.61765 12.3529 4.61765C15.7 4.61765 18.7054 5.32935 20.8558 6.45575C23.0299 7.59456 24.2059 9.08067 24.2059 10.5882Z" fill="#FFCC00" stroke="white"/>
<path d="M24.2059 6.47059C24.2059 7.97816 23.0299 9.46426 20.8558 10.6031C18.7054 11.7295 15.7 12.4412 12.3529 12.4412C9.00589 12.4412 6.0005 11.7295 3.8501 10.6031C1.67601 9.46426 0.5 7.97816 0.5 6.47059C0.5 4.96302 1.67601 3.47691 3.8501 2.33811C6.0005 1.21171 9.00589 0.5 12.3529 0.5C15.7 0.5 18.7054 1.21171 20.8558 2.33811C23.0299 3.47691 24.2059 4.96302 24.2059 6.47059Z" fill="#FFCC00" stroke="white"/>
<path fill-rule="evenodd" clip-rule="evenodd" d="M12.9527 6.87878V6.62603C13.4925 6.62331 14.0395 6.62603 14.5793 6.61516C16.5298 6.57711 18.0628 6.31349 17.998 5.45738C17.962 5.04428 16.7745 4.87034 15.8604 4.81327C15.0759 4.76435 13.6364 4.76435 12.8591 4.82414C11.9666 4.88937 10.8942 5.06602 10.8942 5.46826V5.827C9.25321 5.7047 8.76379 5.34867 8.28876 4.82142C8.01526 4.51431 8.13311 3.92686 8.28915 3.90561C10.6643 3.5822 13.2837 3.58476 15.299 3.90274C15.2054 4.11745 15.1479 4.26421 15.0615 4.47076H17.1127C17.1775 4.33215 17.2351 4.19355 17.3071 4.05766C17.4942 3.69076 17.2999 3.42985 15.9684 3.21514C13.4421 2.81019 10.2037 2.81035 7.66298 3.19627C6.47541 3.37564 5.9716 3.5822 6.21631 4.06868C6.90006 5.42757 7.15878 6.38415 10.8942 6.56352V6.88422C8.05845 6.99021 6.52541 7.54464 6 8.58011H8.05125C8.51188 7.94959 9.2964 7.65879 10.8942 7.58541V8.03928C10.8942 8.43879 11.9666 8.61816 12.8591 8.68339C13.6364 8.74046 15.0759 8.74046 15.8604 8.69154C16.7745 8.63447 17.962 8.46053 17.998 8.04743C18.0628 7.18861 16.5226 6.92499 14.5649 6.88965C14.0251 6.87878 13.4925 6.8815 12.9527 6.87878ZM15.9684 5.55522C15.9828 5.69655 15.8172 5.79439 15.4933 5.85418C14.7736 5.99007 13.111 5.95202 12.9455 5.9493V5.5661C13.8235 5.47641 15.0831 5.47369 15.9684 5.55522ZM12.9455 7.93872V7.55551C13.1254 7.55279 14.716 7.51746 15.443 7.64248C15.7884 7.70227 15.9828 7.80011 15.9684 7.94959C15.0831 8.03112 13.8235 8.0284 12.9455 7.93872Z" fill="white"/>
</svg>
