<svg width="24" height="24" viewBox="0 0 24 24" fill="none" xmlns="http://www.w3.org/2000/svg">
<path d="M12 2C6.47715 2 2 6.47715 2 12C2 17.5228 6.47715 22 12 22C17.5228 22 22 17.5228 22 12C21.9941 6.47961 17.5204 2.0059 12 2ZM12 20.5714C7.26611 20.5714 3.42856 16.7338 3.42856 12C3.42856 7.26611 7.26611 3.42856 12 3.42856C16.7338 3.42856 20.5714 7.26611 20.5714 12C20.5663 16.7318 16.7318 20.5663 12 20.5714Z" fill="#5DB300"/>
<path d="M16.8636 6.81519C16.663 6.71525 16.4272 6.71525 16.2266 6.81519L10.1658 9.8452C10.0273 9.91438 9.91502 10.0267 9.84584 10.1652L6.81583 16.2259C6.63992 16.579 6.78356 17.0079 7.13663 17.1838C7.33723 17.2837 7.57307 17.2837 7.77367 17.1838L13.8344 14.1538C13.9729 14.0846 14.0852 13.9723 14.1544 13.8338L17.1844 7.77303C17.3603 7.41996 17.2167 6.99114 16.8636 6.81519ZM9.05227 14.9473L10.6808 11.6902L12.3094 13.3188L9.05227 14.9473ZM13.3194 12.3088L11.6908 10.6802L14.948 9.05163L13.3194 12.3088Z" fill="#5DB300"/>
</svg>
