<svg width="32" height="32" viewBox="0 0 32 32" fill="none" xmlns="http://www.w3.org/2000/svg">
<path d="M17.6953 10.2812C16.3384 10.2812 15.2344 11.3852 15.2344 12.7422C15.2344 14.0991 16.3384 15.2031 17.6953 15.2031C19.0523 15.2031 20.1562 14.0991 20.1562 12.7422C20.1562 11.3852 19.0523 10.2812 17.6953 10.2812ZM17.6953 13.5625C17.243 13.5625 16.875 13.1945 16.875 12.7422C16.875 12.2899 17.243 11.9219 17.6953 11.9219C18.1476 11.9219 18.5156 12.2899 18.5156 12.7422C18.5156 13.1945 18.1476 13.5625 17.6953 13.5625Z" fill="#5DB300"/>
<path d="M24.2578 16.8438C22.9009 16.8438 21.7969 17.9477 21.7969 19.3047C21.7969 20.6616 22.9009 21.7656 24.2578 21.7656C25.6148 21.7656 26.7188 20.6616 26.7188 19.3047C26.7188 17.9477 25.6148 16.8438 24.2578 16.8438ZM24.2578 20.125C23.8055 20.125 23.4375 19.757 23.4375 19.3047C23.4375 18.8524 23.8055 18.4844 24.2578 18.4844C24.7101 18.4844 25.0781 18.8524 25.0781 19.3047C25.0781 19.757 24.7101 20.125 24.2578 20.125Z" fill="#5DB300"/>
<path d="M24.7131 10.4191C24.3363 10.1678 23.8269 10.2697 23.5756 10.6466L17.0131 20.4904C16.7618 20.8673 16.8637 21.3766 17.2406 21.6279C17.6175 21.8792 18.1268 21.7774 18.3782 21.4004L24.9407 11.5566C25.192 11.1797 25.0901 10.6704 24.7131 10.4191Z" fill="#5DB300"/>
<path d="M29.1797 7H2.82031C2.36728 7 2 7.36728 2 7.82031V12.7422C2 13.1952 2.36728 13.5625 2.82031 13.5625C4.17727 13.5625 5.28125 14.6665 5.28125 16.0234C5.28125 17.3804 4.17727 18.4844 2.82031 18.4844C2.36728 18.4844 2 18.8517 2 19.3047V24.2266C2 24.6796 2.36728 25.0469 2.82031 25.0469H29.1797C29.6327 25.0469 30 24.6796 30 24.2266V7.82031C30 7.36728 29.6327 7 29.1797 7ZM28.3594 23.4062H10.2031V22.5859C10.2031 22.1329 9.83584 21.7656 9.38281 21.7656C8.92978 21.7656 8.5625 22.1329 8.5625 22.5859V23.4062H3.64062V20.0426C5.51045 19.6615 6.92188 18.0042 6.92188 16.0234C6.92188 14.0427 5.51045 12.3854 3.64062 12.0043V8.64062H8.63086V9.46094C8.63086 9.91397 8.99814 10.2812 9.45117 10.2812C9.9042 10.2812 10.2715 9.91397 10.2715 9.46094V8.64062H28.3594V23.4062Z" fill="#5DB300"/>
<path d="M9.38281 16.8438C8.92978 16.8438 8.5625 17.211 8.5625 17.6641V19.3047C8.5625 19.7577 8.92978 20.125 9.38281 20.125C9.83584 20.125 10.2031 19.7577 10.2031 19.3047V17.6641C10.2031 17.211 9.83584 16.8438 9.38281 16.8438Z" fill="#5DB300"/>
<path d="M9.38281 11.9219C8.92978 11.9219 8.5625 12.2892 8.5625 12.7422V14.3828C8.5625 14.8358 8.92978 15.2031 9.38281 15.2031C9.83584 15.2031 10.2031 14.8358 10.2031 14.3828V12.7422C10.2031 12.2892 9.83584 11.9219 9.38281 11.9219Z" fill="#5DB300"/>
</svg>
