<svg width="24" height="28" viewBox="0 0 24 28" fill="none" xmlns="http://www.w3.org/2000/svg">
<path fill-rule="evenodd" clip-rule="evenodd" d="M19.8505 7.1161C20.3352 6.47676 20.623 5.68244 20.623 4.82256C20.623 2.7148 18.8949 1 16.7709 1C15.4914 1 14.548 1.45488 13.8018 2.43152C13.1775 3.24864 12.721 4.38949 12.1484 5.83096C11.5758 4.38944 11.1193 3.24864 10.495 2.43152C9.74882 1.45488 8.80536 1 7.52591 1C5.40187 1 3.67383 2.7148 3.67383 4.82256C3.67383 5.68244 3.9616 6.47676 4.44635 7.1161L5.99997 8.64513H14.4928H18.7392L19.8505 7.1161ZM16.7709 2.52903C15.1915 2.52903 14.7428 3.46897 13.5626 6.44027C13.4775 6.65444 13.3875 6.88089 13.2931 7.1161H16.7709C18.0453 7.1161 19.0822 6.08722 19.0822 4.82256C19.0822 3.55791 18.0453 2.52903 16.7709 2.52903ZM10.7342 6.44027C9.554 3.46897 9.10531 2.52903 7.52591 2.52903C6.25149 2.52903 5.21466 3.55791 5.21466 4.82256C5.21466 6.08722 6.25149 7.1161 7.52591 7.1161H11.0037C10.9093 6.88089 10.8193 6.65444 10.7342 6.44027Z" fill="#A1A1A1" stroke="#A1A1A1" stroke-width="0.5"/>
<rect x="1" y="9" width="22" height="18" stroke="#A1A1A1" stroke-width="2"/>
<path d="M16.2289 14.7957C15.9846 14.5434 15.6944 14.3433 15.3751 14.2068C15.0558 14.0703 14.7136 14 14.3679 14C14.0223 14 13.6801 14.0703 13.3607 14.2068C13.0414 14.3433 12.7513 14.5434 12.507 14.7957L11.9999 15.3189L11.4928 14.7957C10.9992 14.2864 10.3298 14.0003 9.6318 14.0003C8.93381 14.0003 8.2644 14.2864 7.77084 14.7957C7.27728 15.305 7 15.9957 7 16.7159C7 17.4362 7.27728 18.1269 7.77084 18.6362L8.27794 19.1595L11.9999 23L15.7218 19.1595L16.2289 18.6362C16.4734 18.3841 16.6673 18.0847 16.7996 17.7552C16.9319 17.4257 17 17.0726 17 16.7159C17 16.3593 16.9319 16.0061 16.7996 15.6766C16.6673 15.3472 16.4734 15.0478 16.2289 14.7957Z" fill="#E31E24"/>
</svg>
