<svg width="20" height="20" viewBox="0 0 20 20" fill="none" xmlns="http://www.w3.org/2000/svg">
<path d="M19.7923 9.49454L18.3644 8.06663L10.5069 0.209157C10.228 -0.0697192 9.77583 -0.0697192 9.49691 0.209157L1.6394 8.06663L0.210782 9.49529C-0.063281 9.77907 -0.0554542 10.2313 0.228319 10.5053C0.505145 10.7727 0.943989 10.7727 1.22081 10.5053L1.42938 10.2953V19.2857C1.42938 19.6802 1.74919 20 2.14371 20H17.8587C18.2532 20 18.573 19.6802 18.573 19.2857V10.2953L18.7823 10.5046C19.0661 10.7787 19.5183 10.7708 19.7923 10.4871C20.0597 10.2103 20.0597 9.77137 19.7923 9.49454ZM12.1442 18.5714H7.85827V12.8568H12.1442V18.5714ZM17.1444 18.5714H13.5728V12.1425C13.5728 11.748 13.253 11.4282 12.8585 11.4282H7.14394C6.74942 11.4282 6.42961 11.748 6.42961 12.1425V18.5714H2.85804V8.86668L10.0012 1.7235L17.1444 8.86668V18.5714Z" fill="#B558E1"/>
</svg>
