<svg xmlns="http://www.w3.org/2000/svg" width="20" height="32" viewBox="0 0 20 32" fill="none">
<path fill-rule="evenodd" clip-rule="evenodd" d="M8.56515 12.2143C8.46015 12.5887 7.75515 16.1091 7.77515 16.2391C7.80515 16.4003 9.36015 18.8703 9.58515 19.2447L13.2752 25.2975C14.1002 26.3947 16.0702 25.3495 15.0602 23.7323L11.3752 17.6743C10.6952 16.4991 10.7702 17.0867 11.2152 14.8975C11.2752 14.6167 11.3552 14.0811 11.4852 13.8575C11.7552 14.6791 12.0052 15.0379 12.7102 15.4175C13.3452 15.7555 13.9552 16.0415 14.6002 16.3379C15.1202 16.5719 15.9852 17.2583 16.5002 16.4939C16.7302 16.1507 16.6552 15.6567 16.3952 15.4123C16.2552 15.2771 15.6952 15.0171 15.4852 14.9131L13.6602 13.9979C12.2352 12.9163 12.9252 8.88108 9.88015 9.39068C9.10515 9.52068 8.52515 9.88468 8.02515 10.2799C7.74515 10.5035 7.53015 10.7011 7.26515 10.9351C7.00015 11.1691 6.78015 11.3407 6.50515 11.5903C4.93515 13.0099 5.30015 12.7811 4.94515 15.7451C4.91015 16.0259 4.78515 16.6863 4.84515 16.9463C4.92515 17.2947 5.22015 17.6015 5.59015 17.6327C7.15015 17.7783 6.31015 14.8351 7.09515 13.5715C7.29515 13.2387 8.25515 12.4327 8.56515 12.2143Z" fill="#E31E24"/>
<path fill-rule="evenodd" clip-rule="evenodd" d="M7.48011 18.0177C7.22511 18.8237 7.01511 19.6713 6.81011 20.5033C6.59011 21.3925 4.61011 23.4829 4.32011 24.2577C3.95011 25.2249 4.87511 26.0777 5.73511 25.6617C6.12511 25.4693 8.02011 22.6405 8.41511 22.0945C8.66011 21.7513 8.72511 21.4185 8.84011 20.9505C9.00011 20.2901 9.17011 20.3109 8.81511 19.8325C8.36011 19.2241 7.93511 18.5793 7.48011 18.0177Z" fill="#E31E24"/>
<path fill-rule="evenodd" clip-rule="evenodd" d="M11.2704 4.61197C10.1704 4.84077 9.38039 5.64157 9.55039 6.93117C9.89539 9.53117 13.8054 9.05797 13.4404 6.35917C13.3104 5.39197 12.3804 4.37797 11.2704 4.61197Z" fill="#E31E24"/>
</svg>