<svg width="18" height="18" viewBox="0 0 18 18" fill="none" xmlns="http://www.w3.org/2000/svg">
<path d="M17.74 14.0592C17.6983 13.8012 17.5365 13.5807 17.2943 13.4497L13.7105 11.3382L13.681 11.3217C13.5308 11.2465 13.3648 11.2079 13.1968 11.2092C12.8965 11.2092 12.6098 11.3229 12.4108 11.5224L11.353 12.5807C11.3078 12.6237 11.1603 12.6859 11.1155 12.6882C11.1033 12.6872 9.88479 12.5994 7.64154 10.3559C5.40229 8.11719 5.30729 6.89494 5.30654 6.89494C5.30779 6.83244 5.36929 6.68544 5.41304 6.63994L6.31504 5.73819C6.63279 5.41969 6.72804 4.89169 6.53954 4.48269L4.54754 0.734441C4.40279 0.436441 4.12154 0.252441 3.80954 0.252441C3.58879 0.252441 3.37579 0.343941 3.20929 0.510191L0.750542 2.96344C0.514792 3.19794 0.311792 3.60794 0.267542 3.93794C0.246042 4.09569 -0.190208 7.86119 4.97229 13.0244C9.35504 17.4067 12.7725 17.7472 13.7163 17.7472C13.8312 17.7487 13.9461 17.7427 14.0603 17.7294C14.3893 17.6854 14.7988 17.4829 15.033 17.2482L17.4898 14.7917C17.6903 14.5902 17.7818 14.3239 17.74 14.0592Z" fill="#E31E24"/>
</svg>
