<svg xmlns="http://www.w3.org/2000/svg" width="26" height="26" viewBox="0 0 26 26" fill="none">
<path d="M20.6086 18.3918C20.1012 17.9058 19.6074 17.4058 19.1277 16.8924C18.7247 16.4829 18.482 16.185 18.482 16.185L15.4487 14.7366C16.6631 13.3593 17.3333 11.5863 17.3337 9.75002C17.3337 5.56944 13.932 2.16669 9.75033 2.16669C5.56866 2.16669 2.16699 5.56944 2.16699 9.75002C2.16699 13.9306 5.56866 17.3334 9.75033 17.3334C11.6602 17.3334 13.4012 16.6184 14.7369 15.4494L16.1853 18.4828C16.1853 18.4828 16.4832 18.7254 16.8927 19.1284C17.312 19.5217 17.8634 20.0536 18.3921 20.6094L19.8632 22.1173L20.5176 22.8172L22.8153 20.5194L22.1155 19.8651C21.7049 19.4621 21.1567 18.9269 20.6086 18.3918ZM9.75033 15.1667C6.76358 15.1667 4.33366 12.7368 4.33366 9.75002C4.33366 6.76327 6.76358 4.33335 9.75033 4.33335C12.7371 4.33335 15.167 6.76327 15.167 9.75002C15.167 12.7368 12.7371 15.1667 9.75033 15.1667Z" fill="#E31E24"/>
</svg>