<svg width="16" height="16" viewBox="0 0 16 16" fill="none" xmlns="http://www.w3.org/2000/svg">
<path fill-rule="evenodd" clip-rule="evenodd" d="M15.2211 4.60546H13.1526L12.0421 0.409663C12.0046 0.323214 11.9512 0.245804 11.8852 0.182076C11.8192 0.118348 11.7419 0.0696161 11.6579 0.0388034C11.574 0.00799067 11.4851 -0.00426773 11.3966 0.00276342C11.3081 0.00979458 11.2219 0.0359705 11.143 0.0797208L11.0669 0.121252C10.9056 0.212062 10.7833 0.366402 10.7255 0.551971C10.6677 0.73754 10.6789 0.939953 10.7568 1.11685L11.5518 4.60431H4.41279L5.23677 1.12146C5.31566 0.945381 5.32834 0.743369 5.27218 0.557486C5.21602 0.371603 5.09535 0.216174 4.93529 0.123559L4.86019 0.082028C4.78168 0.0375173 4.69564 0.0104659 4.60719 0.00248768C4.51875 -0.00549053 4.42972 0.00576794 4.34541 0.0355913C4.2611 0.0654147 4.18324 0.113192 4.11648 0.176073C4.04972 0.238954 3.99541 0.315651 3.95682 0.401587L2.80561 4.60431H0.777845C0.348689 4.60431 0 4.95271 0 5.37956C0 5.37956 0.347616 6.787 0.777845 6.787H1.4602L1.94193 14.4899C1.94193 14.4899 1.99772 16 4.20894 16H11.7417C14.0431 16 14.0109 14.4587 14.0109 14.4587L14.4003 6.78816H15.2222C15.6513 6.78816 16 5.38071 16 5.38071C15.9989 4.95386 15.6502 4.60546 15.2211 4.60546ZM5.36981 13.4401C5.36981 13.8438 5.10052 14.1703 4.77007 14.1703H4.74539C4.41172 14.1703 4.1435 13.8438 4.1435 13.4401V8.44594C4.1435 8.04217 4.41172 7.71684 4.74539 7.71684H4.77007C5.10052 7.71684 5.36981 8.04217 5.36981 8.44594V13.4401ZM8.58633 13.2151C8.58633 13.6004 8.33206 13.9131 8.01878 13.9131H7.99624C7.68189 13.9131 7.42869 13.6004 7.42869 13.2151V8.48632C7.42869 8.101 7.68189 7.78952 7.99624 7.78952H8.01878C8.33206 7.78952 8.58633 8.10216 8.58633 8.48632V13.2151ZM11.7707 13.3212C11.7707 13.7112 11.5078 14.0261 11.1849 14.0261H11.1613C10.8373 14.0261 10.5765 13.7112 10.5765 13.3212V8.5267C10.5765 8.13677 10.8373 7.82182 11.1613 7.82182H11.1849C11.5078 7.82182 11.7707 8.13677 11.7707 8.5267V13.3212Z" fill="white"/>
</svg>
