<svg width="59" height="56" viewBox="0 0 59 56" fill="none" xmlns="http://www.w3.org/2000/svg">
<path d="M27.8682 1.26548C28.5623 -0.346445 30.8478 -0.346442 31.542 1.26549L38.2931 16.9423C38.5827 17.6147 39.2164 18.0751 39.9453 18.1427L56.9411 19.719C58.6887 19.8811 59.3949 22.0547 58.0764 23.213L45.2531 34.4782C44.7031 34.9613 44.461 35.7063 44.622 36.4205L48.3748 53.0715C48.7607 54.7836 46.9117 56.127 45.4026 55.2309L30.7262 46.5163C30.0968 46.1426 29.3134 46.1426 28.684 46.5163L14.0075 55.2309C12.4985 56.127 10.6495 54.7836 11.0354 53.0715L14.7882 36.4205C14.9491 35.7063 14.7071 34.9613 14.1571 34.4782L1.33376 23.213C0.0152371 22.0547 0.721495 19.8811 2.46904 19.719L19.4648 18.1427C20.1937 18.0751 20.8275 17.6147 21.117 16.9423L27.8682 1.26548Z" fill="#FFCC00"/>
</svg>
