<svg width="59" height="56" viewBox="0 0 59 56" fill="none" xmlns="http://www.w3.org/2000/svg">
<path d="M27.6631 1.26548C28.3573 -0.346445 30.6427 -0.346442 31.3369 1.26549L38.0881 16.9423C38.3776 17.6147 39.0113 18.0751 39.7403 18.1427L56.736 19.719C58.4836 19.8811 59.1898 22.0547 57.8713 23.213L45.048 34.4782C44.498 34.9613 44.2559 35.7063 44.4169 36.4205L48.1697 53.0715C48.5556 54.7836 46.7066 56.127 45.1975 55.2309L30.5211 46.5163C29.8917 46.1426 29.1083 46.1426 28.4789 46.5163L13.8025 55.2309C12.2934 56.127 10.4444 54.7836 10.8303 53.0715L14.5831 36.4205C14.7441 35.7063 14.502 34.9613 13.952 34.4782L1.12868 23.213C-0.189841 22.0547 0.516417 19.8811 2.26396 19.719L19.2597 18.1427C19.9887 18.0751 20.6224 17.6147 20.9119 16.9423L27.6631 1.26548Z" fill="#E4E4E4"/>
</svg>
