<svg width="225" height="80" viewBox="0 0 225 80" fill="none" xmlns="http://www.w3.org/2000/svg">
<path fill-rule="evenodd" clip-rule="evenodd" d="M99.2913 51.6042C99.6168 51.6042 101.155 51.6342 101.481 51.6342C106.067 51.7544 109.973 53.2269 109.796 58.7561C109.737 61.0099 107.606 62.302 104.913 62.7528C103.227 63.0533 100.593 63.0232 98.9066 62.6927C96.3619 62.1818 94.4089 60.8897 94.4089 58.696V56.4723C93.6988 56.7127 92.9886 56.9831 92.3376 57.3738L90 53.4973C91.3611 52.7461 92.8702 52.1751 94.4089 51.8446V49.711C92.8702 49.3805 91.3611 48.8396 90 48.0583L92.3376 44.2119C92.9886 44.5725 93.6988 44.873 94.4089 45.0833V43.3404C94.4089 41.1468 96.3619 39.8245 98.9066 39.3137C100.593 38.9831 103.227 38.9831 104.913 39.2836C107.606 39.7344 109.737 41.0266 109.796 43.2803C109.973 48.8095 106.067 50.2519 101.481 50.3721C101.155 50.4022 99.6168 50.4022 99.2913 50.4322V51.6042ZM159.537 30.0583C159.655 29.4272 159.744 28.7962 159.862 28.1952C167.763 30.2987 179.865 30.1785 187.292 28.2252C187.411 28.8262 187.499 29.4272 187.618 30.0583C179.954 32.1918 167.23 32.1918 159.537 30.0583ZM160.691 23.7177C161.312 20.4122 161.963 17.1367 162.525 13.681H157.584L154.802 28.9765C154.27 31.7711 155.335 33.1534 157.554 34.2052C159.3 35.0466 161.401 35.5875 163.324 35.888C169.213 36.8796 177.971 36.8496 183.83 35.888C185.635 35.5875 187.47 35.1367 189.127 34.4155C191.672 33.3337 192.914 31.9514 192.352 28.9765L189.541 13.681H184.629C185.191 17.1367 185.842 20.4122 186.464 23.7177C183.357 24.469 179.628 24.8897 175.782 25.0099V13.681H170.929V25.0099C167.26 24.8596 163.679 24.4389 160.691 23.7177ZM203.005 13.681L201.111 23.898C206.141 25.2503 213.953 25.2503 218.954 23.898L217.119 13.681H222.031C222.948 18.8496 223.866 24.0783 224.842 29.2169C225.345 31.711 224.783 33.4539 221.143 34.8663C217.918 36.2786 213.479 36.6092 210.017 36.6092C206.496 36.6092 201.821 36.2486 198.596 34.716C195.252 33.3337 194.749 31.6209 195.222 29.2169L198.093 13.681H203.005ZM200.253 28.4656L199.898 30.3287C202.975 31.3805 206.792 31.681 210.017 31.681C213.243 31.681 217.06 31.3805 220.108 30.3287L219.782 28.4656C214.545 30.1484 205.609 30.1785 200.253 28.4656ZM117.637 14.9731C120.862 16.3554 121.336 18.0683 120.892 20.4422C120.655 21.524 120.478 22.6359 120.3 23.7478H115.359C115.625 22.2753 115.891 20.8028 116.158 19.3304C111.305 17.4973 101.895 17.4973 96.1843 19.3304C96.4211 20.4723 96.5986 21.4639 96.8945 22.6058C98.4628 28.4356 100.268 31.5608 106.659 31.711C110.358 31.8012 113.938 30.7494 115.595 29.7878L117.992 34.0549C115.803 35.3471 111.187 36.7294 106.57 36.6092C95.2966 36.3387 93.0774 30.0883 91.2724 20.5023C90.6806 17.3471 91.8938 15.9948 94.7344 14.8529C100.86 12.3588 111.571 12.3588 117.637 14.9731ZM149.772 24.7094C153.441 23.297 153.974 21.5541 153.5 19.0599C153.175 17.2569 152.849 15.484 152.524 13.681H147.582L148.766 20.1718C143.676 22.0048 134.119 22.0649 128.556 20.1718L129.769 13.681H124.887L123.881 19.0599C123.407 21.4639 123.91 23.1768 127.224 24.5591C131.367 26.302 137.64 26.903 143.233 26.2419L144.061 30.7795C140.895 32.2219 135.983 31.9514 133.29 30.8997C133.468 29.9681 133.645 29.0366 133.793 28.105H128.822C128.704 28.7962 128.556 29.4873 128.438 30.2085C128.023 32.4923 128.556 34.1451 131.604 35.4973C135.746 37.2402 141.723 37.3003 146.251 35.2569C148.914 33.9347 149.358 32.312 148.914 30.0883C148.618 28.4957 148.322 26.9631 147.997 25.3404C148.529 25.1902 149.328 24.9197 149.772 24.7094ZM126.721 28.105C126.13 31.1401 125.715 33.3037 125.123 36.3688C122.283 35.1668 120.833 33.2736 121.277 30.6593L121.75 28.105H126.721ZM220.108 45.6843C214.545 43.7311 204.898 43.7311 199.927 45.6843L200.43 48.5391H195.489L195.163 46.7962C194.719 44.3922 195.222 42.6793 198.566 41.297C204.632 38.7427 215.137 38.7427 221.262 41.2069C224.25 42.3788 225.375 43.7611 224.753 47.0366C224.191 49.9214 223.629 51.9948 222.741 54.519C224.191 56.7427 224.931 59.6275 224.931 62.302H220.108C220.108 62.0015 219.989 60.0182 219.634 59.2669C218.036 60.7394 216.083 61.7311 214.012 62.3321C212.089 62.873 209.988 63.0833 208.005 62.9631C196.584 62.302 192.263 51.7544 205.046 48.8696C209.574 47.8479 214.9 48.4189 218.894 50.913C219.368 49.3504 219.753 47.5174 220.108 45.6843ZM212.71 57.5841C214.278 57.1334 215.699 56.3821 216.675 55.3003C215.077 54.1885 213.036 53.5875 211.112 53.4072C209.366 53.2269 207.65 53.317 206.112 53.6776C204.307 54.0683 202.886 54.7294 202.324 55.5107C202.709 56.1718 203.448 56.7127 204.366 57.1334C206.822 58.2753 210.136 58.3053 212.71 57.5841ZM191.139 62.302L187.174 52.2653C185.813 48.3888 181.315 48.3888 179.954 52.2653L175.989 62.302H170.84L175.397 50.6125C176.403 47.7878 178.326 45.9247 180.516 45.0533H174.213V40.095H192.914V45.0533H186.612C188.801 45.9247 190.725 47.7878 191.731 50.6125L196.288 62.302H191.139ZM168.591 41.3271C171.817 42.7094 172.29 44.3922 171.846 46.7661C171.61 47.878 171.432 48.9898 171.254 50.1017H166.313C166.579 48.6292 166.845 47.1568 167.112 45.6543C162.111 43.8212 152.701 43.8212 147.138 45.6843C147.375 46.8262 147.553 47.8179 147.849 48.9598C149.417 54.7895 151.222 57.8846 157.613 58.0349C161.312 58.125 164.893 57.1033 166.55 56.1417L168.946 60.4089C166.757 61.671 162.141 63.0533 157.525 62.9631C146.251 62.6927 144.032 56.4422 142.227 46.8563C141.635 43.701 142.848 42.3488 145.689 41.1768C151.814 38.7127 162.525 38.7127 168.591 41.3271ZM116.809 56.6826C122.342 58.6359 132.018 58.6659 136.989 56.6826L136.456 53.8279H141.398L141.723 55.5708C142.197 57.9748 141.694 59.6876 138.321 61.07C132.255 63.6242 121.75 63.6242 115.655 61.1601C112.666 59.9882 111.512 58.6058 112.163 55.3304C112.696 52.4456 113.347 50.2219 114.205 47.6977C113.317 46.3154 112.666 44.7528 112.311 43.1H117.282C118.88 41.6276 120.803 40.6359 122.875 40.0349C124.828 39.494 126.899 39.2836 128.881 39.4038C140.303 40.0649 144.653 50.6125 131.84 53.4973C127.313 54.519 121.987 53.9481 117.992 51.4539C117.519 53.0165 117.134 54.8496 116.809 56.6826ZM124.206 44.7828C122.608 45.2336 121.218 45.9848 120.211 47.0666C121.839 48.1785 123.851 48.7795 125.804 48.9598C127.52 49.1401 129.266 49.0499 130.775 48.6893C132.58 48.2987 134 47.6376 134.592 46.8563C134.178 46.1952 133.438 45.6543 132.551 45.2336C130.095 44.0917 126.751 44.0616 124.206 44.7828ZM99.2913 44.0616V46.0449C100.83 46.075 105.091 46.1952 105.002 44.0015C103.256 43.5808 101.008 43.5808 99.2913 44.0616ZM99.2913 57.9748V55.9614C100.83 55.9614 105.091 55.8412 105.002 58.0349C103.256 58.4556 101.008 58.4556 99.2913 57.9748Z" fill="#1D1E1C"/>
<path fill-rule="evenodd" clip-rule="evenodd" d="M39.9861 0C62.0742 0 80 17.9258 80 40.0139C80 62.0742 62.0742 80 39.9861 80C17.898 80 0 62.0742 0 40.0139C0 17.9258 17.898 0 39.9861 0Z" fill="#E31E24"/>
<path fill-rule="evenodd" clip-rule="evenodd" d="M44.4795 49.393V46.8123C46.5606 46.7846 48.6696 46.8123 50.7507 46.7013C58.2707 46.3128 64.1812 43.6212 63.9314 34.8803C63.7927 30.6625 59.2141 28.8865 55.69 28.3038C52.6654 27.8043 47.1156 27.8043 44.1187 28.4148C40.6779 29.0808 36.5433 30.8845 36.5433 34.9913V38.6541C30.2166 37.4054 28.3296 33.7703 26.4982 28.3871C25.4438 25.2514 24.6945 22.0048 24.2783 19.0357C33.4354 15.7336 48.1701 15.7613 55.9398 19.0079C55.579 21.2001 55.357 22.6985 55.0241 24.8075H62.9325C63.1822 23.3923 63.4042 21.9771 63.6817 20.5896C64.4032 16.8435 63.654 14.1796 58.5204 11.9875C48.7806 7.85289 31.6595 7.85289 21.8642 11.7932C17.2856 13.6247 15.3432 15.7336 16.2866 20.7006C18.9228 34.5751 22.1416 44.3427 36.5433 46.1741V49.4485C25.6103 50.5307 19.6997 56.1914 17.6741 66.7638H25.5825C27.3584 60.326 30.3831 57.3569 36.5433 56.6077V61.2417C36.5433 65.3208 40.6779 67.1522 44.1187 67.8182C47.1156 68.4009 52.6654 68.4009 55.69 67.9015C59.2141 67.3187 63.7927 65.5428 63.9314 61.325C64.1812 52.5563 58.2429 49.8647 50.6952 49.5039C48.6141 49.393 46.5606 49.4207 44.4795 49.393ZM56.1063 35.8793C56.1618 37.3222 55.5235 38.3212 54.2748 38.9316C51.4999 40.3191 45.09 39.9306 44.4517 39.9028V35.9902C47.8371 35.0745 52.6931 35.0468 56.1063 35.8793ZM44.4517 60.215V56.3024C45.1455 56.2747 51.278 55.9139 54.0806 57.1904C55.4125 57.8009 56.1618 58.7998 56.1063 60.326C52.6931 61.1585 47.8371 61.1307 44.4517 60.215Z" fill="#FEFEFE"/>
</svg>
